<svg xmlns="http://www.w3.org/2000/svg" version="1.1" xmlns:xlink="http://www.w3.org/1999/xlink" xmlns:svgjs="http://svgjs.dev/svgjs" width="308.7612359841165" height="304.915625" viewBox="0 0 1500 1500">
<rect width="1500" height="1500" fill="#0a1627"></rect>
<g transform="matrix(0.6666666666666666,0,0,0.6666666666666666,249.39393939393938,438.5856950067477)">
<svg viewBox="0 0 396 247" data-background-color="#0a1627" preserveAspectRatio="xMidYMid meet" height="935" width="1500" xmlns="http://www.w3.org/2000/svg" xmlns:xlink="http://www.w3.org/1999/xlink">
<g id="tight-bounds" transform="matrix(1,0,0,1,0.2400000000000091,-0.09999999999999432)">
<svg viewBox="0 0 395.52 247.2" height="247.2" width="395.52">
<rect width="395.52" height="247.2" fill="url(#5d3a8357-b86a-45b0-ad6e-4e867cb6a2e9)" mask="url(#5fda645b-97c9-4fbf-b973-d94bc2340eb8)" data-fill-palette-color="tertiary">
</rect>
<g>
<svg>
</svg>
</g>
<g>
<svg viewBox="0 0 395.52 247.2" height="247.2" width="395.52">
<g transform="matrix(1,0,0,1,75.54432,93.17782955703646)">
<svg viewBox="0 0 244.43135999999998 60.84434088592708" height="60.84434088592708" width="244.43135999999998">
<g>
<svg viewBox="0 0 244.43135999999998 60.84434088592708" height="60.84434088592708" width="244.43135999999998">
<g>
<svg viewBox="0 0 244.43135999999998 60.84434088592708" height="60.84434088592708" width="244.43135999999998">
<g>
<svg viewBox="0 0 244.43135999999998 60.84434088592708" height="60.84434088592708" width="244.43135999999998">
<g id="textblocktransform">
<svg viewBox="0 0 244.43135999999998 60.84434088592708" height="60.84434088592708" width="244.43135999999998" id="textblock">
<g>
<svg viewBox="0 0 244.43135999999998 60.84434088592708" height="60.84434088592708" width="244.43135999999998">
<g transform="matrix(1,0,0,1,0,0)">
<svg width="244.43135999999998" viewBox="1.49 -36.01 186.82999999999998 46.51" height="60.84434088592708" data-palette-color="url(#12982508-1a5b-466e-b9bd-573d586f6b6e)">
</svg>
</g>
</svg>
</g>
</svg>
</g>
</svg>
</g>
</svg>
</g>
</svg>
</g>
</svg>
</g>
<g>
<path d="M245.816 0c68.262 0 123.6 55.338 123.6 123.6 0 68.262-55.338 123.6-123.6 123.6-55.151 0-101.865-36.121-117.776-85.996h2.884c15.81 48.336 61.273 83.252 114.892 83.252 66.747 0 120.856-54.109 120.856-120.856 0-66.747-54.109-120.856-120.856-120.857-53.618 0-99.081 34.917-114.892 83.253l-2.884 0c15.911-49.875 62.625-85.996 117.776-85.996z" fill="url(#5d3a8357-b86a-45b0-ad6e-4e867cb6a2e9)" stroke="transparent" data-fill-palette-color="tertiary">
</path>
</g>
</svg>
</g>
<defs>
</defs>
<mask id="dbc2402a-a51a-4a96-bf7c-9b733afde8c5">
<g id="SvgjsG1289">
<svg viewBox="0 0 395.52 247.2" height="247.2" width="395.52">
<g>
<svg>
</svg>
</g>
<g>
<svg viewBox="0 0 395.52 247.2" height="247.2" width="395.52">
<g transform="matrix(1,0,0,1,75.54432,93.17782955703646)">
<svg viewBox="0 0 244.43135999999998 60.84434088592708" height="60.84434088592708" width="244.43135999999998">
<g>
<svg viewBox="0 0 244.43135999999998 60.84434088592708" height="60.84434088592708" width="244.43135999999998">
<g>
<svg viewBox="0 0 244.43135999999998 60.84434088592708" height="60.84434088592708" width="244.43135999999998">
<g>
<svg viewBox="0 0 244.43135999999998 60.84434088592708" height="60.84434088592708" width="244.43135999999998">
<g id="SvgjsG1288">
<svg viewBox="0 0 244.43135999999998 60.84434088592708" height="60.84434088592708" width="244.43135999999998" id="SvgjsSvg1287">
<g>
<svg viewBox="0 0 244.43135999999998 60.84434088592708" height="60.84434088592708" width="244.43135999999998">
<g transform="matrix(1,0,0,1,0,0)">
<svg width="244.43135999999998" viewBox="1.49 -36.01 186.82999999999998 46.51" height="60.84434088592708" data-palette-color="url(#12982508-1a5b-466e-b9bd-573d586f6b6e)">
<path d="M1.49-30L1.49-35.01 29.49-35.01 29.49-30 17.99-30 17.99 0 12.99 0 12.99-30 1.49-30ZM32-4.81L32-11.35Q32-12.35 32.38-13.22 32.76-14.09 33.41-14.75 34.06-15.41 34.93-15.78 35.81-16.16 36.79-16.16L36.79-16.16 49.19-16.16 49.19-21.19 33.49-21.19 33.49-26 49.19-26Q50.19-26 51.07-25.62 51.95-25.24 52.6-24.6 53.24-23.95 53.62-23.07 54-22.19 54-21.19L54-21.19 54 0 49.19 0 49.19-4.39Q49.12-3.49 48.7-2.69 48.29-1.88 47.64-1.28 46.99-0.68 46.16-0.34 45.33 0 44.41 0L44.41 0 36.79 0Q35.81 0 34.93-0.38 34.06-0.76 33.41-1.4 32.76-2.05 32.38-2.93 32-3.81 32-4.81L32-4.81ZM36.79-11.35L36.79-4.81 49.19-4.81 49.19-11.35 36.79-11.35ZM85-21.19L85 0 80.2 0 80.2-21.19 66.79-21.19 66.79 0 62.01 0 62.01-26 66.79-26 66.79-21.41Q66.84-22.36 67.23-23.21 67.62-24.05 68.27-24.67 68.92-25.29 69.77-25.65 70.62-26 71.6-26L71.6-26 80.2-26Q81.2-26 82.08-25.62 82.95-25.24 83.6-24.6 84.25-23.95 84.63-23.07 85-22.19 85-21.19L85-21.19ZM93.25-26L98.06-26 98.06 0 93.25 0 93.25-26ZM93.01-31.01L93.01-36.01 98.31-36.01 98.31-31.01 93.01-31.01ZM105.8-4.81L122.01-4.81 122.01-10.84 110.61-10.84Q109.61-10.84 108.73-11.22 107.85-11.6 107.2-12.24 106.56-12.89 106.18-13.77 105.8-14.65 105.8-15.65L105.8-15.65 105.8-21.19Q105.8-22.19 106.18-23.07 106.56-23.95 107.2-24.6 107.85-25.24 108.73-25.62 109.61-26 110.61-26L110.61-26 125.82-26 125.82-21.19 110.61-21.19 110.61-15.65 122.01-15.65Q123.01-15.65 123.88-15.27 124.75-14.89 125.41-14.25 126.06-13.6 126.44-12.72 126.82-11.84 126.82-10.84L126.82-10.84 126.82-4.81Q126.82-3.81 126.44-2.93 126.06-2.05 125.41-1.4 124.75-0.76 123.88-0.38 123.01 0 122.01 0L122.01 0 105.8 0 105.8-4.81ZM157.31-21.19L157.31 0 152.5 0 152.5-21.19 139.1-21.19 139.1 0 134.31 0 134.31-36.01 139.1-36.01 139.1-21.41Q139.15-22.36 139.54-23.21 139.93-24.05 140.58-24.67 141.22-25.29 142.08-25.65 142.93-26 143.91-26L143.91-26 152.5-26Q153.5-26 154.38-25.62 155.26-25.24 155.91-24.6 156.55-23.95 156.93-23.07 157.31-22.19 157.31-21.19L157.31-21.19ZM165.32-4.81L165.32-21.19Q165.32-22.19 165.7-23.07 166.07-23.95 166.72-24.6 167.37-25.24 168.25-25.62 169.13-26 170.1-26L170.1-26 183.51-26Q184.51-26 185.39-25.62 186.26-25.24 186.91-24.6 187.56-23.95 187.94-23.07 188.32-22.19 188.32-21.19L188.32-21.19 188.32 10.5 183.51 10.5 183.51-4.59Q183.48-3.64 183.08-2.81 182.68-1.98 182.03-1.35 181.38-0.73 180.53-0.37 179.67 0 178.72 0L178.72 0 170.1 0Q169.13 0 168.25-0.38 167.37-0.76 166.72-1.4 166.07-2.05 165.7-2.93 165.32-3.81 165.32-4.81L165.32-4.81ZM170.1-4.81L183.51-4.81 183.51-21.19 170.1-21.19 170.1-4.81Z" opacity="1" transform="matrix(1,0,0,1,0,0)" fill="white" class="wordmark-text-0" id="SvgjsPath1286">
</path>
</svg>
</g>
</svg>
</g>
</svg>
</g>
</svg>
</g>
</svg>
</g>
</svg>
</g>
</svg>
</g>
<g>
<path d="M245.816 0c68.262 0 123.6 55.338 123.6 123.6 0 68.262-55.338 123.6-123.6 123.6-55.151 0-101.865-36.121-117.776-85.996h2.884c15.81 48.336 61.273 83.252 114.892 83.252 66.747 0 120.856-54.109 120.856-120.856 0-66.747-54.109-120.856-120.856-120.857-53.618 0-99.081 34.917-114.892 83.253l-2.884 0c15.911-49.875 62.625-85.996 117.776-85.996z" fill="black" stroke="transparent">
</path>
</g>
</svg>
</g>
<defs>
<mask>
</mask>
</defs>
</svg>
<rect width="395.52" height="247.2" fill="black" stroke="none" visibility="hidden">
</rect>
</g>
</mask>
<linearGradient x1="0" x2="1" y1="0.578" y2="0.595" id="12982508-1a5b-466e-b9bd-573d586f6b6e">
<stop stop-color="#dede50" offset="0">
</stop>
<stop stop-color="#559c49" offset="1">
</stop>
</linearGradient>
<rect width="395.52" height="247.2" fill="url(#12982508-1a5b-466e-b9bd-573d586f6b6e)" mask="url(#dbc2402a-a51a-4a96-bf7c-9b733afde8c5)" data-fill-palette-color="primary">
</rect>
<mask id="5fda645b-97c9-4fbf-b973-d94bc2340eb8">
<g id="SvgjsG1296">
<svg viewBox="0 0 395.52 247.2" height="247.2" width="395.52">
<g>
<svg>
</svg>
</g>
<g>
<svg viewBox="0 0 395.52 247.2" height="247.2" width="395.52">
<g transform="matrix(1,0,0,1,75.54432,93.17782955703646)">
<svg viewBox="0 0 244.43135999999998 60.84434088592708" height="60.84434088592708" width="244.43135999999998">
<g>
<svg viewBox="0 0 244.43135999999998 60.84434088592708" height="60.84434088592708" width="244.43135999999998">
<g>
<svg viewBox="0 0 244.43135999999998 60.84434088592708" height="60.84434088592708" width="244.43135999999998">
<g>
<svg viewBox="0 0 244.43135999999998 60.84434088592708" height="60.84434088592708" width="244.43135999999998">
<g id="SvgjsG1295">
<svg viewBox="0 0 244.43135999999998 60.84434088592708" height="60.84434088592708" width="244.43135999999998" id="SvgjsSvg1294">
<g>
<svg viewBox="0 0 244.43135999999998 60.84434088592708" height="60.84434088592708" width="244.43135999999998">
<g transform="matrix(1,0,0,1,0,0)">
<svg width="244.43135999999998" viewBox="1.49 -36.01 186.82999999999998 46.51" height="60.84434088592708" data-palette-color="url(#12982508-1a5b-466e-b9bd-573d586f6b6e)">
</svg>
</g>
</svg>
</g>
</svg>
</g>
</svg>
</g>
</svg>
</g>
</svg>
</g>
</svg>
</g>
<g>
<path d="M245.816 0c68.262 0 123.6 55.338 123.6 123.6 0 68.262-55.338 123.6-123.6 123.6-55.151 0-101.865-36.121-117.776-85.996h2.884c15.81 48.336 61.273 83.252 114.892 83.252 66.747 0 120.856-54.109 120.856-120.856 0-66.747-54.109-120.856-120.856-120.857-53.618 0-99.081 34.917-114.892 83.253l-2.884 0c15.911-49.875 62.625-85.996 117.776-85.996z" fill="white" stroke="transparent">
</path>
</g>
</svg>
</g>
<defs>
<mask>
</mask>
</defs>
<mask>
<g id="SvgjsG1293">
<svg viewBox="0 0 395.52 247.2" height="247.2" width="395.52">
<g>
<svg>
</svg>
</g>
<g>
<svg viewBox="0 0 395.52 247.2" height="247.2" width="395.52">
<g transform="matrix(1,0,0,1,75.54432,93.17782955703646)">
<svg viewBox="0 0 244.43135999999998 60.84434088592708" height="60.84434088592708" width="244.43135999999998">
<g>
<svg viewBox="0 0 244.43135999999998 60.84434088592708" height="60.84434088592708" width="244.43135999999998">
<g>
<svg viewBox="0 0 244.43135999999998 60.84434088592708" height="60.84434088592708" width="244.43135999999998">
<g>
<svg viewBox="0 0 244.43135999999998 60.84434088592708" height="60.84434088592708" width="244.43135999999998">
<g id="SvgjsG1292">
<svg viewBox="0 0 244.43135999999998 60.84434088592708" height="60.84434088592708" width="244.43135999999998" id="SvgjsSvg1291">
<g>
<svg viewBox="0 0 244.43135999999998 60.84434088592708" height="60.84434088592708" width="244.43135999999998">
<g transform="matrix(1,0,0,1,0,0)">
<svg width="244.43135999999998" viewBox="1.49 -36.01 186.82999999999998 46.51" height="60.84434088592708" data-palette-color="url(#12982508-1a5b-466e-b9bd-573d586f6b6e)">
<path d="M1.49-30L1.49-35.01 29.49-35.01 29.49-30 17.99-30 17.99 0 12.99 0 12.99-30 1.49-30ZM32-4.81L32-11.35Q32-12.35 32.38-13.22 32.76-14.09 33.41-14.75 34.06-15.41 34.93-15.78 35.81-16.16 36.79-16.16L36.79-16.16 49.19-16.16 49.19-21.19 33.49-21.19 33.49-26 49.19-26Q50.19-26 51.07-25.62 51.95-25.24 52.6-24.6 53.24-23.95 53.62-23.07 54-22.19 54-21.19L54-21.19 54 0 49.19 0 49.19-4.39Q49.12-3.49 48.7-2.69 48.29-1.88 47.64-1.28 46.99-0.68 46.16-0.34 45.33 0 44.41 0L44.41 0 36.79 0Q35.81 0 34.93-0.38 34.06-0.76 33.41-1.4 32.76-2.05 32.38-2.93 32-3.81 32-4.81L32-4.81ZM36.79-11.35L36.79-4.81 49.19-4.81 49.19-11.35 36.79-11.35ZM85-21.19L85 0 80.2 0 80.2-21.19 66.79-21.19 66.79 0 62.01 0 62.01-26 66.79-26 66.79-21.41Q66.84-22.36 67.23-23.21 67.62-24.05 68.27-24.67 68.92-25.29 69.77-25.65 70.62-26 71.6-26L71.6-26 80.2-26Q81.2-26 82.08-25.62 82.95-25.24 83.6-24.6 84.25-23.95 84.63-23.07 85-22.19 85-21.19L85-21.19ZM93.25-26L98.06-26 98.06 0 93.25 0 93.25-26ZM93.01-31.01L93.01-36.01 98.31-36.01 98.31-31.01 93.01-31.01ZM105.8-4.81L122.01-4.81 122.01-10.84 110.61-10.84Q109.61-10.84 108.73-11.22 107.85-11.6 107.2-12.24 106.56-12.89 106.18-13.77 105.8-14.65 105.8-15.65L105.8-15.65 105.8-21.19Q105.8-22.19 106.18-23.07 106.56-23.95 107.2-24.6 107.85-25.24 108.73-25.62 109.61-26 110.61-26L110.61-26 125.82-26 125.82-21.19 110.61-21.19 110.61-15.65 122.01-15.65Q123.01-15.65 123.88-15.27 124.75-14.89 125.41-14.25 126.06-13.6 126.44-12.72 126.82-11.84 126.82-10.84L126.82-10.84 126.82-4.81Q126.82-3.81 126.44-2.93 126.06-2.05 125.41-1.4 124.75-0.76 123.88-0.38 123.01 0 122.01 0L122.01 0 105.8 0 105.8-4.81ZM157.31-21.19L157.31 0 152.5 0 152.5-21.19 139.1-21.19 139.1 0 134.31 0 134.31-36.01 139.1-36.01 139.1-21.41Q139.15-22.36 139.54-23.21 139.93-24.05 140.58-24.67 141.22-25.29 142.08-25.65 142.93-26 143.91-26L143.91-26 152.5-26Q153.5-26 154.38-25.62 155.26-25.24 155.91-24.6 156.55-23.95 156.93-23.07 157.31-22.19 157.31-21.19L157.31-21.19ZM165.32-4.81L165.32-21.19Q165.32-22.19 165.7-23.07 166.07-23.95 166.72-24.6 167.37-25.24 168.25-25.62 169.13-26 170.1-26L170.1-26 183.51-26Q184.51-26 185.39-25.62 186.26-25.24 186.91-24.6 187.56-23.95 187.94-23.07 188.32-22.19 188.32-21.19L188.32-21.19 188.32 10.5 183.51 10.5 183.51-4.59Q183.48-3.64 183.08-2.81 182.68-1.98 182.03-1.35 181.38-0.73 180.53-0.37 179.67 0 178.72 0L178.72 0 170.1 0Q169.13 0 168.25-0.38 167.37-0.76 166.72-1.4 166.07-2.05 165.7-2.93 165.32-3.81 165.32-4.81L165.32-4.81ZM170.1-4.81L183.51-4.81 183.51-21.19 170.1-21.19 170.1-4.81Z" opacity="1" transform="matrix(1,0,0,1,0,0)" fill="black" class="wordmark-text-0" id="SvgjsPath1290">
</path>
</svg>
</g>
</svg>
</g>
</svg>
</g>
</svg>
</g>
</svg>
</g>
</svg>
</g>
</svg>
</g>
<g>
<path d="M245.816 0c68.262 0 123.6 55.338 123.6 123.6 0 68.262-55.338 123.6-123.6 123.6-55.151 0-101.865-36.121-117.776-85.996h2.884c15.81 48.336 61.273 83.252 114.892 83.252 66.747 0 120.856-54.109 120.856-120.856 0-66.747-54.109-120.856-120.856-120.857-53.618 0-99.081 34.917-114.892 83.253l-2.884 0c15.911-49.875 62.625-85.996 117.776-85.996z" fill="black" stroke="transparent">
</path>
</g>
</svg>
</g>
<defs>
<mask>
</mask>
</defs>
</svg>
<rect width="395.52" height="247.2" fill="black" stroke="none" visibility="hidden">
</rect>
</g>
</mask>
</svg>
<rect width="395.52" height="247.2" fill="black" stroke="none" visibility="hidden">
</rect>
</g>
</mask>
<linearGradient x1="0.054" x2="0.941" y1="0.5" y2="0.5" id="5d3a8357-b86a-45b0-ad6e-4e867cb6a2e9">
<stop stop-color="#0f3054" offset="0">
</stop>
<stop stop-color="#3b8dcb" offset="0.498">
</stop>
<stop stop-color="#0f3054" offset="1">
</stop>
</linearGradient>
</svg>
<rect width="395.52" height="247.2" fill="none" stroke="none" visibility="hidden">
</rect>
</g>
</svg>
</g>
</svg>